<?xml version="1.0" standalone="no"?>
<!DOCTYPE svg PUBLIC "-//W3C//DTD SVG 20010904//EN"
 "http://www.w3.org/TR/2001/REC-SVG-20010904/DTD/svg10.dtd">
<svg version="1.0" xmlns="http://www.w3.org/2000/svg"
 width="1080.000000pt" height="1080.000000pt" viewBox="0 0 1080.000000 1080.000000"
 preserveAspectRatio="xMidYMid meet">
<metadata>
Created by potrace 1.14, written by Peter Selinger 2001-2017
</metadata>
<g transform="translate(0.000000,1080.000000) scale(0.100000,-0.100000)"
fill="#000000" stroke="none">
<path d="M0 5400 l0 -5400 5400 0 5400 0 0 5400 0 5400 -5400 0 -5400 0 0
-5400z m7428 2985 c126 -30 232 -102 301 -204 67 -99 614 -1053 638 -1112 28
-71 39 -184 24 -264 -6 -33 -27 -93 -47 -134 -67 -135 -81 -145 -759 -536
-335 -192 -632 -360 -662 -373 -29 -12 -86 -27 -126 -34 -93 -14 -203 6 -298
55 -58 31 -67 33 -85 20 -10 -8 -147 -88 -304 -178 -157 -91 -291 -169 -298
-173 -9 -6 141 -314 589 -1202 580 -1151 602 -1196 602 -1250 0 -65 -18 -105
-67 -148 -73 -64 -172 -67 -249 -8 -39 30 -81 110 -637 1214 -327 650 -599
1181 -605 1181 -5 0 -72 -37 -148 -82 l-138 -82 -594 -1284 c-326 -707 -605
-1300 -620 -1319 -129 -161 -394 -22 -340 179 7 24 233 522 503 1106 271 584
492 1065 492 1068 0 3 -17 5 -37 5 -42 0 -118 19 -174 43 -35 14 -38 14 -70
-8 -64 -44 -1124 -651 -1179 -674 -69 -30 -211 -40 -291 -21 -162 39 -268 131
-374 324 -49 90 -75 182 -75 266 0 148 87 319 203 399 62 42 1148 667 1175
675 16 5 22 15 22 35 0 15 7 53 15 85 33 126 103 227 204 295 31 20 410 242
844 491 779 449 787 454 787 485 0 145 86 316 199 399 52 38 1216 710 1270
734 94 41 208 51 309 27z"/>
<path d="M7045 7858 c-854 -492 -958 -553 -973 -576 -34 -53 -28 -67 252 -552
360 -624 333 -580 374 -597 31 -13 40 -13 71 0 54 22 1183 675 1206 698 14 14
20 32 19 62 0 36 -39 109 -293 547 -161 278 -302 515 -315 528 -12 12 -38 25
-57 28 -30 5 -62 -11 -284 -138z"/>
<path d="M5029 6374 c-436 -251 -786 -459 -803 -476 -40 -43 -32 -82 41 -204
70 -115 154 -261 206 -356 43 -77 77 -108 120 -108 21 0 257 131 813 452 431
248 784 456 784 461 0 8 -294 524 -370 649 l-17 28 -774 -446z"/>
<path d="M3380 5150 c-294 -170 -545 -321 -557 -335 -13 -14 -23 -38 -23 -53
0 -34 73 -166 102 -186 53 -37 64 -32 632 295 298 171 545 315 549 319 10 9
-141 270 -157 269 -6 0 -252 -139 -546 -309z"/>
</g>
</svg>
